<svg width="29" height="30" viewBox="0 0 29 30" fill="none" xmlns="http://www.w3.org/2000/svg">
<path fill-rule="evenodd" clip-rule="evenodd" d="M14.4209 30L6.86191 30C3.08244 30 -3.55243e-06 27 -3.23246e-06 23.34L-1.77425e-06 6.66C-1.45297e-06 2.985 3.08244 -2.22207e-06 6.89289 -1.88895e-06L14.4364 -1.22947e-06C18.2158 -8.99056e-07 21.3138 2.985 21.3138 6.645L21.3138 13.845L11.7102 13.845L14.1885 11.445C14.6532 10.995 14.6532 10.26 14.1885 9.81C13.9562 9.585 13.6464 9.48 13.3366 9.48C13.0423 9.48 12.7325 9.585 12.5001 9.81L7.97717 14.175C7.74482 14.385 7.6209 14.685 7.6209 15C7.6209 15.3 7.74482 15.6 7.97717 15.81L12.5001 20.175C12.9648 20.625 13.7238 20.625 14.1885 20.175C14.6532 19.725 14.6532 18.99 14.1885 18.54L11.7102 16.155L21.3138 16.155L21.3138 23.325C21.3138 27 18.2158 30 14.4209 30ZM28.5 15.0001C28.5 15.6301 27.9672 16.1551 27.3277 16.1551L21.3142 16.1551L21.3142 13.8451L27.3277 13.8451C27.9672 13.8451 28.5 14.3551 28.5 15.0001Z" fill="white"/>
</svg>
